<mxfile host="app.diagrams.net" agent="Mozilla/5.0 (X11; Linux x86_64) AppleWebKit/537.36 (KHTML, like Gecko) Chrome/138.0.0.0 Safari/537.36" version="28.2.0">
  <diagram name="Page-1" id="nBG2JU_Q9Ktdwau8soJL">
    <mxGraphModel grid="1" page="1" gridSize="10" guides="1" tooltips="1" connect="1" arrows="1" fold="1" pageScale="1" pageWidth="827" pageHeight="1169" background="none" math="0" shadow="0">
      <root>
        <mxCell id="0" />
        <mxCell id="1" parent="0" />
        <mxCell id="4nPgkNbgInn95ijhr_Vg-1" value="&lt;font style=&quot;font-size: 20px;&quot;&gt;&lt;b&gt;High Level Data Architecture :&lt;/b&gt;&lt;/font&gt;" style="text;html=1;align=center;verticalAlign=middle;whiteSpace=wrap;rounded=0;" vertex="1" parent="1">
          <mxGeometry x="-640" y="30" width="320" height="30" as="geometry" />
        </mxCell>
        <mxCell id="4nPgkNbgInn95ijhr_Vg-2" value="" style="swimlane;startSize=0;gradientColor=none;swimlaneFillColor=none;" vertex="1" parent="1">
          <mxGeometry x="-340" y="160" width="210" height="560" as="geometry" />
        </mxCell>
        <mxCell id="4nPgkNbgInn95ijhr_Vg-3" value="" style="image;aspect=fixed;html=1;points=[];align=center;fontSize=12;image=img/lib/azure2/general/Folder_Blank.svg;" vertex="1" parent="4nPgkNbgInn95ijhr_Vg-2">
          <mxGeometry x="72.73" y="100" width="67.77" height="55" as="geometry" />
        </mxCell>
        <mxCell id="4nPgkNbgInn95ijhr_Vg-4" value="" style="image;aspect=fixed;html=1;points=[];align=center;fontSize=12;image=img/lib/azure2/general/Folder_Blank.svg;" vertex="1" parent="4nPgkNbgInn95ijhr_Vg-2">
          <mxGeometry x="71.5" y="205" width="69" height="56.00000000000001" as="geometry" />
        </mxCell>
        <mxCell id="4nPgkNbgInn95ijhr_Vg-5" value="&lt;b&gt;&lt;font style=&quot;font-size: 16px;&quot;&gt;CRM&lt;/font&gt;&lt;/b&gt;" style="text;html=1;align=center;verticalAlign=middle;whiteSpace=wrap;rounded=0;" vertex="1" parent="4nPgkNbgInn95ijhr_Vg-2">
          <mxGeometry x="70.5" y="160" width="60" height="30" as="geometry" />
        </mxCell>
        <mxCell id="4nPgkNbgInn95ijhr_Vg-10" value="&lt;span style=&quot;font-size: 16px;&quot;&gt;&lt;b&gt;ERP&lt;/b&gt;&lt;/span&gt;" style="text;html=1;align=center;verticalAlign=middle;whiteSpace=wrap;rounded=0;" vertex="1" parent="4nPgkNbgInn95ijhr_Vg-2">
          <mxGeometry x="71.5" y="280" width="60" height="30" as="geometry" />
        </mxCell>
        <mxCell id="4nPgkNbgInn95ijhr_Vg-11" value="" style="line;strokeWidth=2;html=1;" vertex="1" parent="4nPgkNbgInn95ijhr_Vg-2">
          <mxGeometry x="20" y="330" width="170" height="10" as="geometry" />
        </mxCell>
        <mxCell id="4nPgkNbgInn95ijhr_Vg-14" value="&lt;b&gt;Object Type :&lt;/b&gt;" style="text;html=1;align=center;verticalAlign=middle;resizable=0;points=[];autosize=1;strokeColor=none;fillColor=none;" vertex="1" parent="4nPgkNbgInn95ijhr_Vg-2">
          <mxGeometry x="8" y="350" width="100" height="30" as="geometry" />
        </mxCell>
        <mxCell id="4nPgkNbgInn95ijhr_Vg-15" value="" style="image;aspect=fixed;html=1;points=[];align=center;fontSize=12;image=img/lib/azure2/general/File.svg;" vertex="1" parent="4nPgkNbgInn95ijhr_Vg-2">
          <mxGeometry x="116" y="120" width="32.46" height="40" as="geometry" />
        </mxCell>
        <mxCell id="4nPgkNbgInn95ijhr_Vg-24" value="" style="image;aspect=fixed;html=1;points=[];align=center;fontSize=12;image=img/lib/azure2/general/File.svg;" vertex="1" parent="4nPgkNbgInn95ijhr_Vg-2">
          <mxGeometry x="116" y="230" width="32.46" height="40" as="geometry" />
        </mxCell>
        <mxCell id="4nPgkNbgInn95ijhr_Vg-25" value="CSV Files" style="text;html=1;align=center;verticalAlign=middle;resizable=0;points=[];autosize=1;strokeColor=none;fillColor=none;" vertex="1" parent="4nPgkNbgInn95ijhr_Vg-2">
          <mxGeometry x="88" y="352" width="80" height="30" as="geometry" />
        </mxCell>
        <mxCell id="4nPgkNbgInn95ijhr_Vg-26" value="&lt;b&gt;Interface :&lt;/b&gt;" style="text;html=1;align=center;verticalAlign=middle;resizable=0;points=[];autosize=1;strokeColor=none;fillColor=none;" vertex="1" parent="4nPgkNbgInn95ijhr_Vg-2">
          <mxGeometry x="13" y="395" width="80" height="30" as="geometry" />
        </mxCell>
        <mxCell id="4nPgkNbgInn95ijhr_Vg-27" value="Files in Folder" style="text;html=1;align=center;verticalAlign=middle;resizable=0;points=[];autosize=1;strokeColor=none;fillColor=none;" vertex="1" parent="4nPgkNbgInn95ijhr_Vg-2">
          <mxGeometry x="74" y="396" width="100" height="30" as="geometry" />
        </mxCell>
        <mxCell id="4nPgkNbgInn95ijhr_Vg-31" value="" style="swimlane;startSize=0;" vertex="1" parent="1">
          <mxGeometry x="-38" y="160" width="850" height="560" as="geometry" />
        </mxCell>
        <mxCell id="4nPgkNbgInn95ijhr_Vg-36" value="" style="swimlane;startSize=0;" vertex="1" parent="4nPgkNbgInn95ijhr_Vg-31">
          <mxGeometry x="40" y="80" width="200" height="460" as="geometry" />
        </mxCell>
        <mxCell id="4nPgkNbgInn95ijhr_Vg-39" value="" style="html=1;verticalLabelPosition=bottom;align=center;labelBackgroundColor=#ffffff;verticalAlign=top;strokeWidth=2;strokeColor=#d79b00;shadow=0;dashed=0;shape=mxgraph.ios7.icons.data;fillColor=#ffe6cc;" vertex="1" parent="4nPgkNbgInn95ijhr_Vg-36">
          <mxGeometry x="55" y="40" width="80" height="90" as="geometry" />
        </mxCell>
        <mxCell id="4nPgkNbgInn95ijhr_Vg-41" value="Raw Data" style="text;html=1;align=center;verticalAlign=middle;resizable=0;points=[];autosize=1;strokeColor=none;fillColor=none;" vertex="1" parent="4nPgkNbgInn95ijhr_Vg-36">
          <mxGeometry x="55" y="140" width="80" height="30" as="geometry" />
        </mxCell>
        <mxCell id="4nPgkNbgInn95ijhr_Vg-42" value="" style="line;strokeWidth=1;rotatable=0;dashed=0;labelPosition=right;align=left;verticalAlign=middle;spacingTop=0;spacingLeft=6;points=[];portConstraint=eastwest;" vertex="1" parent="4nPgkNbgInn95ijhr_Vg-36">
          <mxGeometry x="20" y="190" width="150" height="10" as="geometry" />
        </mxCell>
        <mxCell id="4nPgkNbgInn95ijhr_Vg-43" value="&lt;b&gt;&lt;font style=&quot;font-size: 13px;&quot;&gt;Object Type&lt;/font&gt;&lt;/b&gt; : Tables" style="text;html=1;align=center;verticalAlign=middle;resizable=0;points=[];autosize=1;strokeColor=none;fillColor=none;" vertex="1" parent="4nPgkNbgInn95ijhr_Vg-36">
          <mxGeometry x="20" y="210" width="140" height="30" as="geometry" />
        </mxCell>
        <mxCell id="4nPgkNbgInn95ijhr_Vg-44" value="&lt;b&gt;&lt;font style=&quot;font-size: 13px;&quot;&gt;Load :&lt;/font&gt;&lt;/b&gt;" style="text;html=1;align=center;verticalAlign=middle;resizable=0;points=[];autosize=1;strokeColor=none;fillColor=none;" vertex="1" parent="4nPgkNbgInn95ijhr_Vg-36">
          <mxGeometry x="20" y="240" width="60" height="30" as="geometry" />
        </mxCell>
        <mxCell id="4nPgkNbgInn95ijhr_Vg-45" value="Batch Processing" style="text;html=1;align=center;verticalAlign=middle;resizable=0;points=[];autosize=1;strokeColor=none;fillColor=none;" vertex="1" parent="4nPgkNbgInn95ijhr_Vg-36">
          <mxGeometry x="35" y="270" width="120" height="30" as="geometry" />
        </mxCell>
        <mxCell id="4nPgkNbgInn95ijhr_Vg-46" value="Full Load" style="text;html=1;align=center;verticalAlign=middle;resizable=0;points=[];autosize=1;strokeColor=none;fillColor=none;" vertex="1" parent="4nPgkNbgInn95ijhr_Vg-36">
          <mxGeometry x="38" y="290" width="70" height="30" as="geometry" />
        </mxCell>
        <mxCell id="4nPgkNbgInn95ijhr_Vg-47" value="Truncate &amp;amp; Insert" style="text;html=1;align=center;verticalAlign=middle;resizable=0;points=[];autosize=1;strokeColor=none;fillColor=none;" vertex="1" parent="4nPgkNbgInn95ijhr_Vg-36">
          <mxGeometry x="31" y="315" width="120" height="30" as="geometry" />
        </mxCell>
        <mxCell id="4nPgkNbgInn95ijhr_Vg-49" value="&lt;b&gt;&lt;font style=&quot;font-size: 13px;&quot;&gt;Data Model&lt;/font&gt;&lt;/b&gt;: None (as - is)" style="text;html=1;align=center;verticalAlign=middle;resizable=0;points=[];autosize=1;strokeColor=none;fillColor=none;" vertex="1" parent="4nPgkNbgInn95ijhr_Vg-36">
          <mxGeometry x="10" y="360" width="170" height="30" as="geometry" />
        </mxCell>
        <mxCell id="4nPgkNbgInn95ijhr_Vg-38" value="&lt;b&gt;&lt;font style=&quot;font-size: 14px;&quot;&gt;Bronze Layer&lt;/font&gt;&lt;/b&gt;" style="rounded=1;whiteSpace=wrap;html=1;fillColor=#ffe6cc;strokeColor=#d79b00;" vertex="1" parent="4nPgkNbgInn95ijhr_Vg-31">
          <mxGeometry x="50" y="10" width="180" height="50" as="geometry" />
        </mxCell>
        <mxCell id="4nPgkNbgInn95ijhr_Vg-50" value="" style="swimlane;startSize=0;fillColor=#dae8fc;strokeColor=#6c8ebf;" vertex="1" parent="4nPgkNbgInn95ijhr_Vg-31">
          <mxGeometry x="309" y="80" width="200" height="460" as="geometry" />
        </mxCell>
        <mxCell id="4nPgkNbgInn95ijhr_Vg-51" value="" style="html=1;verticalLabelPosition=bottom;align=center;labelBackgroundColor=#ffffff;verticalAlign=top;strokeWidth=2;strokeColor=#666666;shadow=0;dashed=0;shape=mxgraph.ios7.icons.data;fillColor=#f5f5f5;fontColor=#333333;" vertex="1" parent="4nPgkNbgInn95ijhr_Vg-50">
          <mxGeometry x="55" y="32" width="80" height="90" as="geometry" />
        </mxCell>
        <mxCell id="4nPgkNbgInn95ijhr_Vg-52" value="Clean and Standardized&lt;div&gt;Data&lt;/div&gt;" style="text;html=1;align=center;verticalAlign=middle;resizable=0;points=[];autosize=1;strokeColor=none;fillColor=none;" vertex="1" parent="4nPgkNbgInn95ijhr_Vg-50">
          <mxGeometry x="20" y="130" width="150" height="40" as="geometry" />
        </mxCell>
        <mxCell id="4nPgkNbgInn95ijhr_Vg-53" value="" style="line;strokeWidth=1;rotatable=0;dashed=0;labelPosition=right;align=left;verticalAlign=middle;spacingTop=0;spacingLeft=6;points=[];portConstraint=eastwest;" vertex="1" parent="4nPgkNbgInn95ijhr_Vg-50">
          <mxGeometry x="20" y="176" width="150" height="10" as="geometry" />
        </mxCell>
        <mxCell id="4nPgkNbgInn95ijhr_Vg-54" value="&lt;b&gt;&lt;font style=&quot;font-size: 13px;&quot;&gt;Object Type&lt;/font&gt;&lt;/b&gt; : Tables" style="text;html=1;align=center;verticalAlign=middle;resizable=0;points=[];autosize=1;strokeColor=none;fillColor=none;" vertex="1" parent="4nPgkNbgInn95ijhr_Vg-50">
          <mxGeometry x="20" y="184" width="140" height="30" as="geometry" />
        </mxCell>
        <mxCell id="4nPgkNbgInn95ijhr_Vg-55" value="&lt;b&gt;&lt;font style=&quot;font-size: 13px;&quot;&gt;Load :&lt;/font&gt;&lt;/b&gt;" style="text;html=1;align=center;verticalAlign=middle;resizable=0;points=[];autosize=1;strokeColor=none;fillColor=none;" vertex="1" parent="4nPgkNbgInn95ijhr_Vg-50">
          <mxGeometry x="20" y="211" width="60" height="30" as="geometry" />
        </mxCell>
        <mxCell id="4nPgkNbgInn95ijhr_Vg-56" value="Batch Processing" style="text;html=1;align=center;verticalAlign=middle;resizable=0;points=[];autosize=1;strokeColor=none;fillColor=none;" vertex="1" parent="4nPgkNbgInn95ijhr_Vg-50">
          <mxGeometry x="35" y="229" width="120" height="30" as="geometry" />
        </mxCell>
        <mxCell id="4nPgkNbgInn95ijhr_Vg-57" value="Full Load" style="text;html=1;align=center;verticalAlign=middle;resizable=0;points=[];autosize=1;strokeColor=none;fillColor=none;" vertex="1" parent="4nPgkNbgInn95ijhr_Vg-50">
          <mxGeometry x="38" y="249" width="70" height="30" as="geometry" />
        </mxCell>
        <mxCell id="4nPgkNbgInn95ijhr_Vg-58" value="Truncate &amp;amp; Insert" style="text;html=1;align=center;verticalAlign=middle;resizable=0;points=[];autosize=1;strokeColor=none;fillColor=none;" vertex="1" parent="4nPgkNbgInn95ijhr_Vg-50">
          <mxGeometry x="31" y="271" width="120" height="30" as="geometry" />
        </mxCell>
        <mxCell id="4nPgkNbgInn95ijhr_Vg-59" value="&lt;b&gt;&lt;font style=&quot;font-size: 13px;&quot;&gt;Data Model&lt;/font&gt;&lt;/b&gt;: None (as - is)" style="text;html=1;align=center;verticalAlign=middle;resizable=0;points=[];autosize=1;strokeColor=none;fillColor=none;" vertex="1" parent="4nPgkNbgInn95ijhr_Vg-50">
          <mxGeometry x="10" y="420" width="170" height="30" as="geometry" />
        </mxCell>
        <mxCell id="4nPgkNbgInn95ijhr_Vg-61" value="&lt;b&gt;&lt;font style=&quot;font-size: 13px;&quot;&gt;Transformations :&lt;/font&gt;&lt;/b&gt;" style="text;html=1;align=center;verticalAlign=middle;resizable=0;points=[];autosize=1;strokeColor=none;fillColor=none;" vertex="1" parent="4nPgkNbgInn95ijhr_Vg-50">
          <mxGeometry x="5" y="290" width="130" height="30" as="geometry" />
        </mxCell>
        <mxCell id="4nPgkNbgInn95ijhr_Vg-63" value="" style="shape=waypoint;sketch=0;size=6;pointerEvents=1;points=[];fillColor=none;resizable=0;rotatable=0;perimeter=centerPerimeter;snapToPoint=1;" vertex="1" parent="4nPgkNbgInn95ijhr_Vg-50">
          <mxGeometry x="31" y="234" width="20" height="20" as="geometry" />
        </mxCell>
        <mxCell id="4nPgkNbgInn95ijhr_Vg-64" value="" style="shape=waypoint;sketch=0;size=6;pointerEvents=1;points=[];fillColor=none;resizable=0;rotatable=0;perimeter=centerPerimeter;snapToPoint=1;" vertex="1" parent="4nPgkNbgInn95ijhr_Vg-50">
          <mxGeometry x="31" y="254" width="20" height="20" as="geometry" />
        </mxCell>
        <mxCell id="4nPgkNbgInn95ijhr_Vg-66" value="" style="shape=waypoint;sketch=0;size=6;pointerEvents=1;points=[];fillColor=none;resizable=0;rotatable=0;perimeter=centerPerimeter;snapToPoint=1;" vertex="1" parent="4nPgkNbgInn95ijhr_Vg-50">
          <mxGeometry x="31" y="274" width="20" height="20" as="geometry" />
        </mxCell>
        <mxCell id="4nPgkNbgInn95ijhr_Vg-67" value="Data Cleansing" style="text;html=1;align=center;verticalAlign=middle;resizable=0;points=[];autosize=1;strokeColor=none;fillColor=none;" vertex="1" parent="4nPgkNbgInn95ijhr_Vg-50">
          <mxGeometry x="35" y="315" width="110" height="30" as="geometry" />
        </mxCell>
        <mxCell id="4nPgkNbgInn95ijhr_Vg-68" value="Data Normalisation" style="text;html=1;align=center;verticalAlign=middle;resizable=0;points=[];autosize=1;strokeColor=none;fillColor=none;" vertex="1" parent="4nPgkNbgInn95ijhr_Vg-50">
          <mxGeometry x="35" y="337" width="130" height="30" as="geometry" />
        </mxCell>
        <mxCell id="4nPgkNbgInn95ijhr_Vg-71" value="Data Standardisation" style="text;html=1;align=center;verticalAlign=middle;resizable=0;points=[];autosize=1;strokeColor=none;fillColor=none;" vertex="1" parent="4nPgkNbgInn95ijhr_Vg-50">
          <mxGeometry x="35" y="358" width="140" height="30" as="geometry" />
        </mxCell>
        <mxCell id="4nPgkNbgInn95ijhr_Vg-72" value="Derived Columns" style="text;html=1;align=center;verticalAlign=middle;resizable=0;points=[];autosize=1;strokeColor=none;fillColor=none;" vertex="1" parent="4nPgkNbgInn95ijhr_Vg-50">
          <mxGeometry x="35" y="380" width="120" height="30" as="geometry" />
        </mxCell>
        <mxCell id="4nPgkNbgInn95ijhr_Vg-73" value="Stored Procedure" style="text;html=1;align=center;verticalAlign=middle;resizable=0;points=[];autosize=1;strokeColor=none;fillColor=none;" vertex="1" parent="4nPgkNbgInn95ijhr_Vg-50">
          <mxGeometry x="35" y="2" width="120" height="30" as="geometry" />
        </mxCell>
        <mxCell id="4nPgkNbgInn95ijhr_Vg-74" value="&lt;span style=&quot;font-size: 14px;&quot;&gt;&lt;b&gt;Silver Layer&lt;/b&gt;&lt;/span&gt;" style="rounded=1;whiteSpace=wrap;html=1;fillColor=#f5f5f5;strokeColor=#666666;fontColor=#333333;" vertex="1" parent="4nPgkNbgInn95ijhr_Vg-31">
          <mxGeometry x="309" y="10" width="180" height="50" as="geometry" />
        </mxCell>
        <mxCell id="4nPgkNbgInn95ijhr_Vg-95" value="" style="swimlane;startSize=0;fillColor=#dae8fc;strokeColor=#6c8ebf;" vertex="1" parent="4nPgkNbgInn95ijhr_Vg-31">
          <mxGeometry x="588" y="80" width="200" height="460" as="geometry" />
        </mxCell>
        <mxCell id="4nPgkNbgInn95ijhr_Vg-96" value="" style="html=1;verticalLabelPosition=bottom;align=center;labelBackgroundColor=#ffffff;verticalAlign=top;strokeWidth=2;strokeColor=#d6b656;shadow=0;dashed=0;shape=mxgraph.ios7.icons.data;fillColor=#fff2cc;gradientColor=#ffd966;" vertex="1" parent="4nPgkNbgInn95ijhr_Vg-95">
          <mxGeometry x="55" y="32" width="80" height="90" as="geometry" />
        </mxCell>
        <mxCell id="4nPgkNbgInn95ijhr_Vg-97" value="Business - Ready&lt;div&gt;Data&lt;/div&gt;" style="text;html=1;align=center;verticalAlign=middle;resizable=0;points=[];autosize=1;strokeColor=none;fillColor=none;" vertex="1" parent="4nPgkNbgInn95ijhr_Vg-95">
          <mxGeometry x="35" y="130" width="120" height="40" as="geometry" />
        </mxCell>
        <mxCell id="4nPgkNbgInn95ijhr_Vg-98" value="" style="line;strokeWidth=1;rotatable=0;dashed=0;labelPosition=right;align=left;verticalAlign=middle;spacingTop=0;spacingLeft=6;points=[];portConstraint=eastwest;" vertex="1" parent="4nPgkNbgInn95ijhr_Vg-95">
          <mxGeometry x="20" y="176" width="150" height="10" as="geometry" />
        </mxCell>
        <mxCell id="4nPgkNbgInn95ijhr_Vg-99" value="&lt;b&gt;&lt;font style=&quot;font-size: 13px;&quot;&gt;Object Type&lt;/font&gt;&lt;/b&gt; : Views&amp;nbsp;&amp;nbsp;" style="text;html=1;align=center;verticalAlign=middle;resizable=0;points=[];autosize=1;strokeColor=none;fillColor=none;" vertex="1" parent="4nPgkNbgInn95ijhr_Vg-95">
          <mxGeometry x="15" y="184" width="150" height="30" as="geometry" />
        </mxCell>
        <mxCell id="4nPgkNbgInn95ijhr_Vg-100" value="&lt;b&gt;&lt;font style=&quot;font-size: 13px;&quot;&gt;No Load&amp;nbsp;&lt;/font&gt;&lt;/b&gt;" style="text;html=1;align=center;verticalAlign=middle;resizable=0;points=[];autosize=1;strokeColor=none;fillColor=none;" vertex="1" parent="4nPgkNbgInn95ijhr_Vg-95">
          <mxGeometry x="20" y="211" width="80" height="30" as="geometry" />
        </mxCell>
        <mxCell id="4nPgkNbgInn95ijhr_Vg-104" value="&lt;b&gt;&lt;font style=&quot;font-size: 13px;&quot;&gt;&amp;nbsp; Data Model :&lt;/font&gt;&lt;/b&gt;" style="text;html=1;align=center;verticalAlign=middle;resizable=0;points=[];autosize=1;strokeColor=none;fillColor=none;" vertex="1" parent="4nPgkNbgInn95ijhr_Vg-95">
          <mxGeometry x="5" y="347" width="110" height="30" as="geometry" />
        </mxCell>
        <mxCell id="4nPgkNbgInn95ijhr_Vg-105" value="&lt;b&gt;&lt;font style=&quot;font-size: 13px;&quot;&gt;Transformations :&lt;/font&gt;&lt;/b&gt;" style="text;html=1;align=center;verticalAlign=middle;resizable=0;points=[];autosize=1;strokeColor=none;fillColor=none;" vertex="1" parent="4nPgkNbgInn95ijhr_Vg-95">
          <mxGeometry x="5" y="248" width="130" height="30" as="geometry" />
        </mxCell>
        <mxCell id="4nPgkNbgInn95ijhr_Vg-109" value="Data Integrations" style="text;html=1;align=center;verticalAlign=middle;resizable=0;points=[];autosize=1;strokeColor=none;fillColor=none;" vertex="1" parent="4nPgkNbgInn95ijhr_Vg-95">
          <mxGeometry x="42" y="274" width="110" height="30" as="geometry" />
        </mxCell>
        <mxCell id="4nPgkNbgInn95ijhr_Vg-110" value="Data Aggregations" style="text;html=1;align=center;verticalAlign=middle;resizable=0;points=[];autosize=1;strokeColor=none;fillColor=none;" vertex="1" parent="4nPgkNbgInn95ijhr_Vg-95">
          <mxGeometry x="40" y="296" width="120" height="30" as="geometry" />
        </mxCell>
        <mxCell id="4nPgkNbgInn95ijhr_Vg-111" value="Business Logics" style="text;html=1;align=center;verticalAlign=middle;resizable=0;points=[];autosize=1;strokeColor=none;fillColor=none;" vertex="1" parent="4nPgkNbgInn95ijhr_Vg-95">
          <mxGeometry x="40" y="317" width="110" height="30" as="geometry" />
        </mxCell>
        <mxCell id="4nPgkNbgInn95ijhr_Vg-114" value="Star Schema" style="text;html=1;align=center;verticalAlign=middle;resizable=0;points=[];autosize=1;strokeColor=none;fillColor=none;" vertex="1" parent="4nPgkNbgInn95ijhr_Vg-95">
          <mxGeometry x="42" y="370" width="90" height="30" as="geometry" />
        </mxCell>
        <mxCell id="4nPgkNbgInn95ijhr_Vg-115" value="Flat Table" style="text;html=1;align=center;verticalAlign=middle;resizable=0;points=[];autosize=1;strokeColor=none;fillColor=none;" vertex="1" parent="4nPgkNbgInn95ijhr_Vg-95">
          <mxGeometry x="40" y="390" width="80" height="30" as="geometry" />
        </mxCell>
        <mxCell id="4nPgkNbgInn95ijhr_Vg-118" value="&lt;span style=&quot;font-size: 14px;&quot;&gt;&lt;b&gt;Gold Layer&lt;/b&gt;&lt;/span&gt;" style="rounded=1;whiteSpace=wrap;html=1;fillColor=#fff2cc;strokeColor=#d6b656;gradientColor=#ffd966;" vertex="1" parent="4nPgkNbgInn95ijhr_Vg-31">
          <mxGeometry x="598" y="10" width="180" height="50" as="geometry" />
        </mxCell>
        <mxCell id="4nPgkNbgInn95ijhr_Vg-120" value="" style="shape=mxgraph.arrows.arrow_right;html=1;verticalLabelPosition=bottom;verticalAlign=top;strokeWidth=2;strokeColor=#6c8ebf;fillColor=#dae8fc;" vertex="1" parent="4nPgkNbgInn95ijhr_Vg-31">
          <mxGeometry x="240" y="220" width="70" height="50" as="geometry" />
        </mxCell>
        <mxCell id="4nPgkNbgInn95ijhr_Vg-121" value="" style="shape=mxgraph.arrows.arrow_right;html=1;verticalLabelPosition=bottom;verticalAlign=top;strokeWidth=2;strokeColor=#6c8ebf;fillColor=#dae8fc;" vertex="1" parent="4nPgkNbgInn95ijhr_Vg-31">
          <mxGeometry x="510" y="220" width="80" height="50" as="geometry" />
        </mxCell>
        <mxCell id="4nPgkNbgInn95ijhr_Vg-32" value="&lt;b&gt;&lt;font style=&quot;font-size: 16px;&quot;&gt;Data WareHouse&lt;/font&gt;&lt;/b&gt;" style="rounded=0;whiteSpace=wrap;html=1;fillColor=#fff2cc;strokeColor=#d6b656;" vertex="1" parent="1">
          <mxGeometry x="150" y="120" width="300" height="30" as="geometry" />
        </mxCell>
        <mxCell id="4nPgkNbgInn95ijhr_Vg-35" value="&lt;span style=&quot;font-size: 16px;&quot;&gt;&lt;b&gt;Sources&lt;/b&gt;&lt;/span&gt;" style="rounded=0;whiteSpace=wrap;html=1;fillColor=#d0cee2;strokeColor=#56517e;" vertex="1" parent="1">
          <mxGeometry x="-320" y="120" width="170" height="30" as="geometry" />
        </mxCell>
        <mxCell id="4nPgkNbgInn95ijhr_Vg-48" value="&lt;b&gt;&lt;font style=&quot;font-size: 13px;&quot;&gt;No Transformation&lt;/font&gt;&lt;/b&gt;" style="text;html=1;align=center;verticalAlign=middle;resizable=0;points=[];autosize=1;strokeColor=none;fillColor=none;" vertex="1" parent="1">
          <mxGeometry x="16" y="578" width="140" height="30" as="geometry" />
        </mxCell>
        <mxCell id="4nPgkNbgInn95ijhr_Vg-77" value="" style="shape=mxgraph.arrows.arrow_right;html=1;verticalLabelPosition=bottom;verticalAlign=top;strokeWidth=2;strokeColor=#6c8ebf;fillColor=#dae8fc;" vertex="1" parent="1">
          <mxGeometry x="-160" y="370" width="140" height="70" as="geometry" />
        </mxCell>
        <mxCell id="4nPgkNbgInn95ijhr_Vg-116" value="Aggregated Table" style="text;html=1;align=center;verticalAlign=middle;resizable=0;points=[];autosize=1;strokeColor=none;fillColor=none;" vertex="1" parent="1">
          <mxGeometry x="570" y="648" width="120" height="30" as="geometry" />
        </mxCell>
        <mxCell id="4nPgkNbgInn95ijhr_Vg-123" value="" style="swimlane;startSize=0;" vertex="1" parent="1">
          <mxGeometry x="921" y="160" width="200" height="560" as="geometry" />
        </mxCell>
        <mxCell id="4nPgkNbgInn95ijhr_Vg-124" value="" style="image;aspect=fixed;html=1;points=[];align=center;fontSize=12;image=img/lib/azure2/power_platform/PowerBI.svg;" vertex="1" parent="4nPgkNbgInn95ijhr_Vg-123">
          <mxGeometry x="49.75" y="160" width="100.5" height="134" as="geometry" />
        </mxCell>
        <mxCell id="4nPgkNbgInn95ijhr_Vg-125" value="&lt;font style=&quot;font-size: 16px;&quot;&gt;&lt;b&gt;BI &amp;amp; Reporting&lt;/b&gt;&lt;/font&gt;" style="text;html=1;align=center;verticalAlign=middle;resizable=0;points=[];autosize=1;strokeColor=none;fillColor=none;" vertex="1" parent="4nPgkNbgInn95ijhr_Vg-123">
          <mxGeometry x="30" y="320" width="140" height="30" as="geometry" />
        </mxCell>
        <mxCell id="4nPgkNbgInn95ijhr_Vg-132" value="&lt;span style=&quot;font-size: 16px;&quot;&gt;&lt;b&gt;Consumer&lt;/b&gt;&lt;/span&gt;" style="rounded=0;whiteSpace=wrap;html=1;fillColor=#d5e8d4;strokeColor=#82b366;gradientColor=#97d077;" vertex="1" parent="1">
          <mxGeometry x="936" y="120" width="170" height="30" as="geometry" />
        </mxCell>
        <mxCell id="4nPgkNbgInn95ijhr_Vg-133" value="" style="shape=mxgraph.arrows.arrow_right;html=1;verticalLabelPosition=bottom;verticalAlign=top;strokeWidth=2;strokeColor=#6c8ebf;fillColor=#dae8fc;" vertex="1" parent="1">
          <mxGeometry x="800" y="375" width="140" height="60" as="geometry" />
        </mxCell>
      </root>
    </mxGraphModel>
  </diagram>
</mxfile>
